<svg xmlns="http://www.w3.org/2000/svg" viewBox="0 0 34 42" fill="none">
  <path d="M0 4 Q0 0 4 0 H30 Q34 0 34 4 V38
           Q31 35 28 38 Q25 41 22 38 Q19 35 16 38 Q13 41 10 38 Q7 35 4 38 Q1 41 0 38 Z"
        fill="#F59E0B"/>
  <rect x="6" y="10" width="22" height="2" rx="1" fill="white" opacity="0.7"/>
  <rect x="6" y="15" width="16" height="2" rx="1" fill="white" opacity="0.7"/>
  <rect x="6" y="20" width="19" height="2" rx="1" fill="white" opacity="0.7"/>
  <rect x="6" y="25" width="22" height="1" rx="0.5" fill="white" opacity="0.4"/>
  <rect x="6" y="28" width="22" height="3.5" rx="1.5" fill="white"/>
</svg>
